HIERARCHY
ROOT Root
{
  OFFSET 0.0 0.0 0.0
  CHANNELS 6 Xposition Yposition Zposition Zrotation Yrotation Xrotation
  JOINT Hips
  {
    OFFSET 0.0 100.0 0.0
    CHANNELS 6 Xposition Yposition Zposition Zrotation Yrotation Xrotation
    JOINT Spine1
    {
      OFFSET 5.003913 -0.037094 -0.013727
      CHANNELS 3 Zrotation Yrotation Xrotation
      JOINT Spine2
      {
        OFFSET 7.125363 -1e-06 0.0
        CHANNELS 3 Zrotation Yrotation Xrotation
        JOINT Chest
        {
          OFFSET 7.594027 1e-06 0.0
          CHANNELS 3 Zrotation Yrotation Xrotation
          JOINT Neck1
          {
            OFFSET 26.313086 -0.460272 -0.181672
            CHANNELS 3 Zrotation Yrotation Xrotation
            JOINT Neck2
            {
              OFFSET 8.045911 0.0 0.0
              CHANNELS 3 Zrotation Yrotation Xrotation
              JOINT Head
              {
                OFFSET 6.432774 0.0 0.0
                CHANNELS 3 Zrotation Yrotation Xrotation
                JOINT HeadEnd
                {
                  OFFSET 16.169773 0.06451 0.00362
                  CHANNELS 3 Zrotation Yrotation Xrotation
                }
                JOINT Jaw
                {
                  OFFSET 0.108741 3.12938 0.002639
                  CHANNELS 3 Zrotation Yrotation Xrotation
                }
                JOINT LeftEye
                {
                  OFFSET 4.45173 8.166359 3.206392
                  CHANNELS 3 Zrotation Yrotation Xrotation
                }
                JOINT RightEye
                {
                  OFFSET 4.436895 8.135758 -3.222429
                  CHANNELS 3 Zrotation Yrotation Xrotation
                }
              }
            }
          }
          JOINT LeftShoulder
          {
            OFFSET 23.218927 5.195579 1.621656
            CHANNELS 3 Zrotation Yrotation Xrotation
            JOINT LeftArm
            {
              OFFSET 15.902118 2e-06 -2e-06
              CHANNELS 3 Zrotation Yrotation Xrotation
              JOINT LeftForeArm
              {
                OFFSET 28.739307 0.0 -1e-06
                CHANNELS 3 Zrotation Yrotation Xrotation
                JOINT LeftHand
                {
                  OFFSET 27.093981 -4e-06 0.0
                  CHANNELS 3 Zrotation Yrotation Xrotation
                  JOINT LeftHandThumb1
                  {
                    OFFSET 2.276781 3.380274 0.83384
                    CHANNELS 3 Zrotation Yrotation Xrotation
                    JOINT LeftHandThumb2
                    {
                      OFFSET 4.705309 -1e-06 -1e-06
                      CHANNELS 3 Zrotation Yrotation Xrotation
                      JOINT LeftHandThumb3
                      {
                        OFFSET 2.798515 0.0 3e-06
                        CHANNELS 3 Zrotation Yrotation Xrotation
                        JOINT LeftHandThumbEnd
                        {
                          OFFSET 3.180793 4e-06 -4e-06
                          CHANNELS 3 Zrotation Yrotation Xrotation
                        }
                      }
                    }
                  }
                  JOINT LeftHandIndex1
                  {
                    OFFSET 3.247786 2.352677 0.137192
                    CHANNELS 3 Zrotation Yrotation Xrotation
                    JOINT LeftHandIndex2
                    {
                      OFFSET 6.367095 1e-06 0.0
                      CHANNELS 3 Zrotation Yrotation Xrotation
                      JOINT LeftHandIndex3
                      {
                        OFFSET 3.662364 0.0 0.0
                        CHANNELS 3 Zrotation Yrotation Xrotation
                        JOINT LeftHandIndex4
                        {
                          OFFSET 2.329242 4e-06 -4e-06
                          CHANNELS 3 Zrotation Yrotation Xrotation
                          JOINT LeftHandIndexEnd
                          {
                            OFFSET 2.767823 1e-06 0.0
                            CHANNELS 3 Zrotation Yrotation Xrotation
                          }
                        }
                      }
                    }
                  }
                  JOINT LeftHandMiddle1
                  {
                    OFFSET 3.163612 0.945023 -0.406112
                    CHANNELS 3 Zrotation Yrotation Xrotation
                    JOINT LeftHandMiddle2
                    {
                      OFFSET 6.276789 3e-06 0.0
                      CHANNELS 3 Zrotation Yrotation Xrotation
                      JOINT LeftHandMiddle3
                      {
                        OFFSET 4.35652 -1e-06 4e-06
                        CHANNELS 3 Zrotation Yrotation Xrotation
                        JOINT LeftHandMiddle4
                        {
                          OFFSET 2.996877 0.0 8e-06
                          CHANNELS 3 Zrotation Yrotation Xrotation
                          JOINT LeftHandMiddleEnd
                          {
                            OFFSET 2.323256 3e-06 -4e-06
                            CHANNELS 3 Zrotation Yrotation Xrotation
                          }
                        }
                      }
                    }
                  }
                  JOINT LeftHandRing1
                  {
                    OFFSET 2.882606 -0.309162 0.107445
                    CHANNELS 3 Zrotation Yrotation Xrotation
                    JOINT LeftHandRing2
                    {
                      OFFSET 6.033198 0.0 4e-06
                      CHANNELS 3 Zrotation Yrotation Xrotation
                      JOINT LeftHandRing3
                      {
                        OFFSET 4.350578 3e-06 0.0
                        CHANNELS 3 Zrotation Yrotation Xrotation
                        JOINT LeftHandRing4
                        {
                          OFFSET 2.651321 2e-06 -7e-06
                          CHANNELS 3 Zrotation Yrotation Xrotation
                          JOINT LeftHandRingEnd
                          {
                            OFFSET 1.937663 1e-06 -4e-06
                            CHANNELS 3 Zrotation Yrotation Xrotation
                          }
                        }
                      }
                    }
                  }
                  JOINT LeftHandPinky1
                  {
                    OFFSET 2.865315 -1.525436 0.575687
                    CHANNELS 3 Zrotation Yrotation Xrotation
                    JOINT LeftHandPinky2
                    {
                      OFFSET 5.54936 1e-06 -8e-06
                      CHANNELS 3 Zrotation Yrotation Xrotation
                      JOINT LeftHandPinky3
                      {
                        OFFSET 3.070974 0.0 -4e-06
                        CHANNELS 3 Zrotation Yrotation Xrotation
                        JOINT LeftHandPinky4
                        {
                          OFFSET 1.549672 1e-06 0.0
                          CHANNELS 3 Zrotation Yrotation Xrotation
                          JOINT LeftHandPinkyEnd
                          {
                            OFFSET 1.952123 0.0 0.0
                            CHANNELS 3 Zrotation Yrotation Xrotation
                          }
                        }
                      }
                    }
                  }
                }
              }
            }
          }
          JOINT RightShoulder
          {
            OFFSET 23.161716 5.296122 -1.380114
            CHANNELS 3 Zrotation Yrotation Xrotation
            JOINT RightArm
            {
              OFFSET -16.027195 -2e-06 1.1e-05
              CHANNELS 3 Zrotation Yrotation Xrotation
              JOINT RightForeArm
              {
                OFFSET -28.736639 4e-06 2e-06
                CHANNELS 3 Zrotation Yrotation Xrotation
                JOINT RightHand
                {
                  OFFSET -27.133619 6e-06 0.0
                  CHANNELS 3 Zrotation Yrotation Xrotation
                  JOINT RightHandThumb1
                  {
                    OFFSET -2.274328 -3.351035 -0.83067
                    CHANNELS 3 Zrotation Yrotation Xrotation
                    JOINT RightHandThumb2
                    {
                      OFFSET -4.703594 -3e-06 2e-06
                      CHANNELS 3 Zrotation Yrotation Xrotation
                      JOINT RightHandThumb3
                      {
                        OFFSET -2.794935 -4e-06 -3e-06
                        CHANNELS 3 Zrotation Yrotation Xrotation
                        JOINT RightHandThumbEnd
                        {
                          OFFSET -3.183852 4e-06 1e-06
                          CHANNELS 3 Zrotation Yrotation Xrotation
                        }
                      }
                    }
                  }
                  JOINT RightHandIndex1
                  {
                    OFFSET -3.253496 -2.33755 -0.127667
                    CHANNELS 3 Zrotation Yrotation Xrotation
                    JOINT RightHandIndex2
                    {
                      OFFSET -6.344434 0.0 0.0
                      CHANNELS 3 Zrotation Yrotation Xrotation
                      JOINT RightHandIndex3
                      {
                        OFFSET -3.654871 0.0 -8e-06
                        CHANNELS 3 Zrotation Yrotation Xrotation
                        JOINT RightHandIndex4
                        {
                          OFFSET -2.327586 -1e-06 0.0
                          CHANNELS 3 Zrotation Yrotation Xrotation
                          JOINT RightHandIndexEnd
                          {
                            OFFSET -2.770001 3e-06 8e-06
                            CHANNELS 3 Zrotation Yrotation Xrotation
                          }
                        }
                      }
                    }
                  }
                  JOINT RightHandMiddle1
                  {
                    OFFSET -3.168223 -0.944764 0.411762
                    CHANNELS 3 Zrotation Yrotation Xrotation
                    JOINT RightHandMiddle2
                    {
                      OFFSET -6.266691 -1e-06 -4e-06
                      CHANNELS 3 Zrotation Yrotation Xrotation
                      JOINT RightHandMiddle3
                      {
                        OFFSET -4.348901 0.0 0.0
                        CHANNELS 3 Zrotation Yrotation Xrotation
                        JOINT RightHandMiddle4
                        {
                          OFFSET -3.00024 2e-06 -4e-06
                          CHANNELS 3 Zrotation Yrotation Xrotation
                          JOINT RightHandMiddleEnd
                          {
                            OFFSET -2.321477 -4e-06 -4e-06
                            CHANNELS 3 Zrotation Yrotation Xrotation
                          }
                        }
                      }
                    }
                  }
                  JOINT RightHandRing1
                  {
                    OFFSET -2.885654 0.293261 -0.119232
                    CHANNELS 3 Zrotation Yrotation Xrotation
                    JOINT RightHandRing2
                    {
                      OFFSET -6.032835 -1e-06 -4e-06
                      CHANNELS 3 Zrotation Yrotation Xrotation
                      JOINT RightHandRing3
                      {
                        OFFSET -4.33881 0.0 -4e-06
                        CHANNELS 3 Zrotation Yrotation Xrotation
                        JOINT RightHandRing4
                        {
                          OFFSET -2.654903 -4e-06 -4e-06
                          CHANNELS 3 Zrotation Yrotation Xrotation
                          JOINT RightHandRingEnd
                          {
                            OFFSET -1.935122 0.0 4e-06
                            CHANNELS 3 Zrotation Yrotation Xrotation
                          }
                        }
                      }
                    }
                  }
                  JOINT RightHandPinky1
                  {
                    OFFSET -2.866241 1.503904 -0.60527
                    CHANNELS 3 Zrotation Yrotation Xrotation
                    JOINT RightHandPinky2
                    {
                      OFFSET -5.553177 -2e-06 0.0
                      CHANNELS 3 Zrotation Yrotation Xrotation
                      JOINT RightHandPinky3
                      {
                        OFFSET -3.062664 -1e-06 -4e-06
                        CHANNELS 3 Zrotation Yrotation Xrotation
                        JOINT RightHandPinky4
                        {
                          OFFSET -1.546529 2e-06 4e-06
                          CHANNELS 3 Zrotation Yrotation Xrotation
                          JOINT RightHandPinkyEnd
                          {
                            OFFSET -1.952341 0.0 -4e-06
                            CHANNELS 3 Zrotation Yrotation Xrotation
                          }
                        }
                      }
                    }
                  }
                }
              }
            }
          }
        }
      }
    }
    JOINT LeftLeg
    {
      OFFSET -8.443107 2.567604 10.043214
      CHANNELS 3 Zrotation Yrotation Xrotation
      JOINT LeftShin
      {
        OFFSET 43.229198 1e-06 -1e-06
        CHANNELS 3 Zrotation Yrotation Xrotation
        JOINT LeftFoot
        {
          OFFSET 42.298611 1e-06 1e-06
          CHANNELS 3 Zrotation Yrotation Xrotation
          JOINT LeftToeBase
          {
            OFFSET 14.165858 1e-06 0.0
            CHANNELS 3 Zrotation Yrotation Xrotation
            JOINT LeftToeEnd
            {
              OFFSET 6.7141 -0.234461 0.0
              CHANNELS 3 Zrotation Yrotation Xrotation
            }
          }
        }
      }
    }
    JOINT RightLeg
    {
      OFFSET -8.303923 2.592729 -10.047278
      CHANNELS 3 Zrotation Yrotation Xrotation
      JOINT RightShin
      {
        OFFSET -43.369682 0.0 1e-06
        CHANNELS 3 Zrotation Yrotation Xrotation
        JOINT RightFoot
        {
          OFFSET -42.260784 4e-06 2e-06
          CHANNELS 3 Zrotation Yrotation Xrotation
          JOINT RightToeBase
          {
            OFFSET -14.222245 -2e-06 -1e-06
            CHANNELS 3 Zrotation Yrotation Xrotation
            JOINT RightToeEnd
            {
              OFFSET -6.660062 0.232574 -2e-06
              CHANNELS 3 Zrotation Yrotation Xrotation
            }
          }
        }
      }
    }
  }
}
MOTION
Frames: 4
Frame Time: 0.03333333333333333
0.0 0.0 0.0 0.0 -0.0 0.0 -0.706049 99.445045 0.1943 91.444664 2.702518 90.052803 -4.282544 -0.245227 -0.535759 -12.193892 -0.834864 -0.861856 16.474581 -0.459569 -3.504877 12.73854 -1.218349 2.875325 -2.486315 -0.129952 5.498059 -29.328711 -0.932921 7.491364 5e-06 -0.0 -1e-06 0.072482 0.025933 -0.03181 0.242143 0.077379 -0.010496 0.230091 -0.027509 -0.037419 79.294128 -86.538864 -73.271271 68.066277 -25.272448 -47.229733 74.234848 0.799417 0.476587 -0.177137 8.725098 -60.854507 17.636631 -26.322725 52.411194 -19.466656 -14.395596 29.410385 1e-06 -8.774821 -2e-06 15.615188 -17.543177 6.016274 -0.609774 -1.795655 -3.889327 -4.807087 -11.04681 -2.937852 4e-06 -20.976015 3e-06 -5.019969 -25.03356 -4.031881 6e-06 1e-06 0.0 -10.634532 -5.686968 -3.565588 10.573274 -17.922947 -3.113899 2e-06 -13.821211 2e-06 -0.50178 -31.181505 -4.027012 -10.986872 -59.11322 6.609501 -13.98271 -7.150198 -2.875045 13.772731 -8.401491 -3.21824 0.347737 -34.211544 0.771654 -0.963031 -17.73337 2.621022 -0.0 -0.0 0.0 -17.346413 -20.095213 -4.201784 21.757555 -1.638378 3.866428 -0.0 -6.338821 2e-06 -1.697584 -22.591738 -6.194006 -3e-06 -4e-06 -2e-06 -15.676879 -78.034302 -155.009125 64.811615 -13.028285 -39.863094 70.349808 -2.550973 0.058967 -16.876829 12.284924 -45.640404 22.182123 -20.3759 49.933334 -16.701815 -16.743528 28.476536 -3e-06 -12.690604 -2e-06 15.606915 -17.529818 3.256747 -0.105919 -1.513856 -4.275882 -5.039043 -5.612873 -2.953558 7e-06 -11.020525 -2e-06 -6.111301 -15.895338 -3.840472 -0.0 -1e-06 1e-06 -10.283373 -5.680289 -4.341841 11.028297 -11.302409 -2.372633 -1.384269 -14.238583 -6.320123 -0.625437 -26.924194 -3.827602 -4.977906 -49.025185 -2.604129 -13.708529 -7.363477 -3.720942 18.141155 -14.052742 -3.242674 7e-06 -18.787273 -3e-06 -0.429711 -8.456047 2.555504 2e-06 2e-06 2e-06 -15.923536 -20.094486 -5.473588 30.419222 -7.190832 1.735928 2e-06 -8.16293 -4e-06 -1.8619 -22.861475 -6.167942 -1e-06 -1e-06 -2e-06 -178.522186 -6.684656 -24.224369 12.703375 -0.026491 0.280036 -76.872559 -3.131345 -8.77968 -5.599782 1.612625 2.135966 -1.0 0.0 -0.0 -4.011949 -9.417421 -13.193388 19.21027 -0.017756 -0.00126 -80.24437 4.891942 -5.043458 -5.315469 0.467654 1.61702 -1.000002 0.0 0.0 
0.0 0.0 0.0 0.0 -0.0 0.0 -0.749843 99.43383 0.299432 91.435837 2.663321 89.66378 -4.175263 -0.113737 -0.552537 -12.204394 -0.762366 -0.787073 16.657854 -0.440547 -3.46892 12.920872 -1.176948 2.848859 -2.466645 -0.154758 5.442767 -29.971184 -1.141074 7.479715 6e-06 -0.0 -0.0 0.079831 0.030937 0.001299 0.267449 0.063762 0.02166 0.253505 -0.004277 -0.006712 80.571625 -87.440895 -73.968185 66.293167 -27.532841 -47.998684 77.815575 1.016927 0.585478 -1.231547 9.582761 -58.208908 17.636635 -26.322733 52.41119 -19.466656 -14.395596 29.410381 1e-06 -8.774823 -3e-06 15.858671 -17.689726 6.10704 -0.609776 -1.795653 -3.889328 -4.807088 -11.046811 -2.93785 4e-06 -20.976019 1e-06 -5.019969 -25.03356 -4.03188 5e-06 -0.0 -0.0 -10.634533 -5.68697 -3.565588 10.573275 -17.922953 -3.113901 2e-06 -13.82121 3e-06 -0.501778 -31.181505 -4.027015 -11.314154 -59.641758 6.696179 -13.982715 -7.150198 -2.875041 13.772732 -8.401489 -3.21824 0.347735 -34.211555 0.771656 -0.963028 -17.73337 2.621021 -2e-06 -0.0 1e-06 -17.346416 -20.095215 -4.20178 21.757557 -1.638377 3.866426 0.0 -6.338825 0.0 -1.697587 -22.591745 -6.194007 -2e-06 -4e-06 -1e-06 -12.80093 -78.512146 -157.427414 64.914764 -13.884373 -39.369473 73.664902 -2.014566 0.185834 -17.081877 12.533944 -44.410221 22.182121 -20.375891 49.9333 -16.701811 -16.743528 28.476522 -3e-06 -12.690603 -2e-06 15.42867 -17.52775 3.136523 -0.10592 -1.513856 -4.27588 -5.039043 -5.612872 -2.953557 6e-06 -11.020523 -2e-06 -6.111297 -15.89533 -3.84047 0.0 -0.0 0.0 -10.283371 -5.680287 -4.341838 11.028296 -11.302406 -2.372631 -1.384268 -14.238575 -6.32012 -0.625437 -26.924187 -3.8276 -4.937574 -48.890083 -2.568908 -13.708527 -7.363473 -3.72094 18.141153 -14.052739 -3.242673 8e-06 -18.787266 1e-06 -0.429709 -8.456043 2.555503 -0.0 -2e-06 1e-06 -15.923534 -20.094479 -5.473585 30.41921 -7.190829 1.735926 3e-06 -8.162927 -1e-06 -1.861897 -22.861467 -6.167944 1e-06 -4e-06 -1e-06 -178.363159 -6.692922 -24.488829 12.605026 -0.019256 0.293206 -76.931595 -3.08158 -8.932395 -5.568763 1.619347 2.148653 -0.999999 -1e-06 -0.0 -4.17432 -9.339038 -12.764965 19.37026 -0.046076 0.01777 -80.35907 4.858768 -5.123868 -5.185699 0.466742 1.61883 -1.000002 0.0 0.0 
0.0 0.0 0.0 0.0 -0.0 0.0 -0.771809 99.428978 0.317556 91.424011 2.547472 89.264313 -4.11126 0.010441 -0.520255 -12.216945 -0.720728 -0.727508 16.92536 -0.397041 -3.382939 12.869466 -1.047737 2.922661 -2.482647 -0.189369 5.250624 -30.509415 -1.428359 7.630029 6e-06 -0.0 -0.0 0.076496 0.022716 -0.008225 0.238956 0.031597 0.006747 0.225578 0.011104 -0.014211 91.979813 -88.328598 -84.663605 64.339478 -29.99865 -48.859634 81.23204 1.018228 0.508444 -2.543185 10.598693 -54.299755 17.636629 -26.322741 52.411213 -19.466665 -14.3956 29.410395 3e-06 -8.774822 -2e-06 16.117414 -17.715443 6.153205 -0.609774 -1.795654 -3.889327 -4.807088 -11.046809 -2.93785 3e-06 -20.976017 2e-06 -5.019969 -25.033556 -4.03188 5e-06 -0.0 0.0 -10.634533 -5.686969 -3.565588 10.573272 -17.922955 -3.113902 2e-06 -13.82121 1e-06 -0.501782 -31.181505 -4.027014 -11.400202 -60.118355 6.665043 -13.982714 -7.150199 -2.875042 13.772729 -8.401492 -3.218241 0.34773 -34.211555 0.771657 -0.963032 -17.733372 2.62102 -1e-06 -0.0 -1e-06 -17.346418 -20.095219 -4.201784 21.757557 -1.638375 3.866428 0.0 -6.338825 -1e-06 -1.69759 -22.591743 -6.194005 -1e-06 -4e-06 -2e-06 -11.279794 -78.889824 -158.570908 64.756538 -14.959467 -38.560154 76.756065 -1.323715 0.403254 -17.294903 12.399443 -42.679001 22.182121 -20.375895 49.933319 -16.701815 -16.743528 28.476532 -2e-06 -12.690603 -1e-06 15.429099 -17.549404 2.990895 -0.105919 -1.513856 -4.275883 -5.039042 -5.612872 -2.953556 5e-06 -11.020524 -2e-06 -6.111301 -15.895334 -3.840472 0.0 -1e-06 1e-06 -10.283373 -5.680289 -4.341839 11.028296 -11.302406 -2.372632 -1.384268 -14.238581 -6.320124 -0.625439 -26.924194 -3.827603 -4.913038 -48.852722 -2.661627 -13.708527 -7.363475 -3.720939 18.141151 -14.052739 -3.242674 8e-06 -18.78727 -2e-06 -0.42971 -8.456045 2.555505 0.0 1e-06 -0.0 -15.923538 -20.094486 -5.473586 30.419222 -7.190828 1.735926 2e-06 -8.162927 -0.0 -1.861902 -22.861473 -6.167943 -1e-06 -4e-06 -2e-06 -178.390518 -6.719187 -24.846651 12.612981 -0.021144 0.303471 -76.968719 -3.083567 -8.965084 -5.5482 1.616402 2.152131 -0.999998 -1e-06 -0.0 -4.475102 -9.286329 -12.377978 19.522976 -0.052739 0.029229 -80.400185 4.925124 -5.183259 -5.103074 0.481411 1.623366 -1.000002 0.0 0.0 
0.0 0.0 0.0 0.0 -0.0 0.0 -0.798696 99.414238 0.273061 91.417198 2.392245 88.942665 -4.044918 0.100717 -0.441555 -12.218143 -0.696382 -0.688027 17.164831 -0.346785 -3.266159 12.698616 -0.924208 3.036495 -2.516605 -0.218724 5.038643 -30.930447 -1.681677 7.762001 6e-06 -0.0 0.0 0.071068 0.010319 -0.032891 0.198244 0.001635 -0.023796 0.189628 0.015594 -0.035342 127.134247 -88.837357 -119.073692 62.577881 -32.087139 -49.132874 83.637863 0.956496 0.489339 -3.895928 11.127563 -50.965969 17.63661 -26.322729 52.411182 -19.466654 -14.3956 29.410393 3e-06 -8.774821 -2e-06 16.28204 -17.74371 6.251013 -0.609776 -1.795654 -3.88933 -4.80709 -11.046809 -2.937849 1e-06 -20.976013 1e-06 -5.019971 -25.033548 -4.031878 6e-06 -1e-06 0.0 -10.634529 -5.686972 -3.565586 10.573271 -17.922945 -3.1139 -0.0 -13.821205 2e-06 -0.501785 -31.181498 -4.027012 -11.488729 -60.470875 6.749749 -13.982712 -7.150197 -2.87504 13.772731 -8.40149 -3.218245 0.347728 -34.21154 0.771659 -0.963033 -17.73337 2.621019 -2e-06 -1e-06 1e-06 -17.346416 -20.095213 -4.201781 21.757563 -1.638376 3.866423 1e-06 -6.338823 -0.0 -1.697591 -22.591743 -6.194006 -1e-06 -4e-06 -3e-06 -10.722229 -79.161949 -158.931412 64.472771 -16.191528 -37.722446 78.920464 -0.763916 0.589114 -17.430895 11.996045 -40.526375 22.182104 -20.375896 49.933323 -16.701805 -16.74353 28.47653 -2e-06 -12.690601 0.0 15.501629 -17.576345 2.880657 -0.10592 -1.513855 -4.275881 -5.03904 -5.612868 -2.953555 5e-06 -11.02052 -1e-06 -6.111298 -15.895328 -3.840469 -1e-06 -2e-06 -1e-06 -10.283367 -5.680287 -4.341839 11.02829 -11.302401 -2.372633 -1.384272 -14.238574 -6.320118 -0.62544 -26.924179 -3.8276 -4.910819 -48.872288 -2.774255 -13.708521 -7.363475 -3.720938 18.141146 -14.052734 -3.242674 6e-06 -18.787262 0.0 -0.429713 -8.456043 2.555502 1e-06 0.0 -0.0 -15.923534 -20.094481 -5.473582 30.419205 -7.19082 1.735925 0.0 -8.162922 -1e-06 -1.861904 -22.861465 -6.167942 -1e-06 -3e-06 -2e-06 -178.63385 -6.801567 -25.068386 12.86911 -0.014998 0.302983 -77.057831 -3.184383 -8.9955 -5.502306 1.619113 2.153801 -0.999999 -0.0 -0.0 -4.889537 -9.262564 -12.0745 19.783337 -0.042065 0.043996 -80.456726 4.987621 -5.24502 -5.032232 0.493076 1.624647 -1.000002 0.0 0.0 
